<svg id="Layer_1" data-name="Layer 1" xmlns="http://www.w3.org/2000/svg" viewBox="0 0 1376.47 406.91"><defs><style>.cls-1,.cls-4{fill:#4b637b;}.cls-2{fill:#312272;}.cls-3{fill:#112840;}.cls-4{font-size:120px;font-family:CorsaGrotesk-Thin, Corsa Grotesk;font-weight:200;letter-spacing:0.11em;}.cls-5{letter-spacing:0.04em;}.cls-6{letter-spacing:0.12em;}.cls-7{letter-spacing:0.09em;}</style></defs><path class="cls-1" d="M520.13,615.28c-39.9.78-69.47-31.74-69.19-70,.28-38.54,31.22-69.47,69.3-69.37,37.87.09,69.39,32.14,69.2,70.37C589.24,585.11,558.76,615.48,520.13,615.28Zm40.53-69.11a41.3,41.3,0,0,0-41.1-41.52c-22.6,0-40.11,17.78-40.21,40.86a41,41,0,0,0,41,41.45C543,586.88,560.64,569.06,560.66,546.17Z" transform="translate(-94.63 -348.84)"/><path class="cls-2" d="M350.89,529.57v80.15H324.67V478.62h21.21l64.24,80c.21-3.2.41-4.91.41-6.62,0-18.16.11-41.9,0-60.06l4.07-2.89c7.3-5.45,14.36-11.23,22.63-17.76v138.6H416.52l-63.84-81Z" transform="translate(-94.63 -348.84)"/><path class="cls-3" d="M151.16,478.44c12.76.23,24,4.3,33.18,13.81,13.44,14,15.68,50-9.5,63.53-1.3.7-2.51,1.56-4.42,2.75,9.56,17.05,18.86,33.64,28.67,51.12H168.85q-12.14-23.4-24.56-47.38H121.58v47.15H94.63V478.27m27,25.27v34.13c10.33,0,20.27.43,30.16-.12s15.15-6.2,15.56-15.43c.45-10.15-4.45-17.43-14.26-18.37C142.93,502.79,132.6,503.54,121.63,503.54Z" transform="translate(-94.63 -348.84)"/><path class="cls-3" d="M920.44,555.08v30.35H984v24.18h-90.2V478.79h89.18v23.92H920.48V531h50.29v24.06Z" transform="translate(-94.63 -348.84)"/><path class="cls-3" d="M292.25,531.09v24.16h-50v30.42h63.88v23.89H215.61V478.69h89.64v24.14h-63v28.26Z" transform="translate(-94.63 -348.84)"/><path class="cls-3" d="M870.5,501.21c-18.44,24.69-42,54.3-60.47,78.94-1.07,1.42-2,2.91-3.77,5.38h67.51v24.13H771.32c-.19-9.49-.16-21.31-.16-21.31,18.91-24.52,43.63-56.27,62.05-81.17.67-.9,1.19-1.92,2.4-3.89H772.87V478.77h97.68" transform="translate(-94.63 -348.84)"/><path class="cls-1" d="M653.45,544.43q34.32-80.17,69-160.2c3.94-9.15,7.63-18.4,12-29l23.9,25.35L668.19,590.64c-1.31-2.78-2.07-4.18-2.66-5.65-4.21-10.52-10.89-24-14.69-34.65" transform="translate(-94.63 -348.84)"/><path class="cls-3" d="M664.61,609.87H638c-18.69-43.65-37.34-87.18-56.25-131.34H612C629.45,521.9,648.28,564.79,664.61,609.87Z" transform="translate(-94.63 -348.84)"/><path class="cls-3" d="M750.34,609.69H724.28V478.64h26.06Z" transform="translate(-94.63 -348.84)"/><path d="M98.71,478.27" transform="translate(-94.63 -348.84)"/><path class="cls-3" d="M517.92,398,379.71,499.23,358,475.58,517.84,359.94" transform="translate(-94.63 -348.84)"/><path class="cls-1" d="M517.84,359.94,676,476.26l-22,23.41L517.92,398" transform="translate(-94.63 -348.84)"/><text class="cls-4" transform="translate(181.5 381.35)">DIGI<tspan class="cls-5" x="295.44" y="0">T</tspan><tspan class="cls-6" x="368.75" y="0">A</tspan><tspan class="cls-7" x="466.31" y="0">L</tspan></text><text x="-94.63" y="-348.84"/><text x="-94.63" y="-348.84"/><text x="-94.63" y="-348.84"/></svg>